<svg width="414" height="773" viewBox="0 0 414 773" fill="none" xmlns="http://www.w3.org/2000/svg">
<path d="M846.089 82.7997C857.027 115.86 892.728 133.962 925.829 123.232C958.93 112.502 976.896 77.0035 965.957 43.9434C955.019 10.8834 919.318 -7.21878 886.217 3.51107C853.116 14.2409 835.15 49.7396 846.089 82.7997Z" fill="url(#paint0_linear_243_374)"/>
<path d="M765.773 139.104C776.712 172.164 815.371 189.308 852.12 177.395C888.87 165.482 909.794 129.025 898.856 95.9648C887.917 62.9048 849.258 45.7614 812.508 57.6741C775.759 69.5868 754.835 106.044 765.773 139.104Z" fill="url(#paint1_linear_243_374)"/>
<path d="M686.485 141.843C698.802 179.068 740.48 198.971 779.575 186.298C818.671 173.625 840.379 133.175 828.063 95.9495C815.746 58.7244 774.068 38.821 734.973 51.4941C695.877 64.1671 674.169 104.618 686.485 141.843Z" fill="url(#paint2_linear_243_374)"/>
<path d="M632.649 202.09C644.965 239.315 654.476 177.792 693.572 165.118C732.667 152.445 786.542 193.421 774.226 156.196C761.909 118.971 720.231 99.068 681.136 111.741C642.041 124.414 620.332 164.864 632.649 202.09Z" fill="url(#paint3_linear_243_374)"/>
<path d="M591.545 172.618C598.694 194.224 623.928 205.438 647.906 197.666C671.885 189.893 685.528 166.076 678.379 144.47C671.23 122.864 645.997 111.65 622.018 119.423C598.039 127.196 584.396 151.012 591.545 172.618Z" fill="url(#paint4_linear_243_374)"/>
<path d="M490.266 195.011C502.41 231.715 540.568 252.292 575.493 240.971C610.418 229.65 628.886 190.717 616.741 154.013C604.597 117.308 566.44 96.7311 531.514 108.052C496.589 119.374 478.121 158.306 490.266 195.011Z" fill="url(#paint5_linear_243_374)"/>
<path d="M417.901 219.512C425.395 242.159 453.232 253.464 480.077 244.762C506.923 236.06 522.611 210.646 515.118 187.998C507.624 165.351 479.787 154.046 452.942 162.748C426.096 171.45 410.408 196.864 417.901 219.512Z" fill="url(#paint6_linear_243_374)"/>
<path d="M383.801 277.536C391.294 300.184 419.131 311.489 445.977 302.786C472.822 294.084 488.51 268.67 481.017 246.023C473.524 223.376 445.687 212.071 418.841 220.773C391.996 229.475 376.307 254.889 383.801 277.536Z" fill="url(#paint7_linear_243_374)"/>
<path d="M322.819 276.428C331.519 302.72 361.39 316.637 389.538 307.512C417.687 298.387 433.454 269.677 424.755 243.385C416.056 217.093 386.185 203.176 358.036 212.301C329.887 221.425 314.12 250.136 322.819 276.428Z" fill="url(#paint8_linear_243_374)"/>
<path d="M217.765 300.044C230.943 339.872 275.854 361.064 318.077 347.377C360.3 333.69 383.846 290.308 370.668 250.48C357.49 210.651 312.579 189.46 270.356 203.146C228.133 216.833 204.587 260.216 217.765 300.044Z" fill="url(#paint9_linear_243_374)"/>
<path d="M131.176 294.189C141.512 325.427 184.119 339.655 226.342 325.968C268.565 312.281 294.415 275.862 284.08 244.625C273.744 213.387 231.137 199.159 188.914 212.846C146.691 226.533 120.841 262.951 131.176 294.189Z" fill="url(#paint10_linear_243_374)"/>
<path d="M68.7439 367.66C78.2182 396.295 113.366 410.604 147.249 399.621C181.132 388.638 200.919 356.521 191.444 327.886C181.97 299.252 146.822 284.942 112.939 295.926C79.0566 306.909 59.2696 339.026 68.7439 367.66Z" fill="url(#paint11_linear_243_374)"/>
<path d="M79.2904 361.632C90.2289 394.692 125.93 412.794 159.031 402.065C192.131 391.335 210.098 355.836 199.159 322.776C188.221 289.716 152.52 271.614 119.419 282.344C86.3179 293.073 68.3519 328.572 79.2904 361.632Z" fill="url(#paint12_linear_243_374)"/>
<path d="M10.9726 401.522C21.9111 434.582 60.5701 451.726 97.3198 439.813C134.07 427.9 154.994 391.443 144.055 358.383C133.117 325.323 94.4576 308.179 57.7079 320.092C20.9582 332.005 0.0340334 368.462 10.9726 401.522Z" fill="url(#paint13_linear_243_374)"/>
<path d="M-77.6351 386.406C-65.3185 423.631 -23.6409 443.534 15.4546 430.861C54.55 418.188 76.2586 377.738 63.942 340.513C51.6254 303.288 9.94766 283.384 -29.1478 296.057C-68.2433 308.73 -89.9517 349.181 -77.6351 386.406Z" fill="url(#paint14_linear_243_374)"/>
<path d="M-128.109 454.957C-115.793 492.182 -74.1149 512.085 -35.0195 499.412C4.07604 486.739 25.7844 446.289 13.4678 409.064C1.15119 371.839 -40.5263 351.935 -79.6219 364.608C-118.717 377.281 -140.426 417.732 -128.109 454.957Z" fill="url(#paint15_linear_243_374)"/>
<path d="M-169.213 425.485C-162.064 447.092 -136.83 458.306 -112.852 450.533C-88.8732 442.76 -75.23 418.944 -82.3788 397.338C-89.5276 375.731 -114.761 364.517 -138.74 372.29C-162.718 380.063 -176.362 403.879 -169.213 425.485Z" fill="url(#paint16_linear_243_374)"/>
<path d="M-270.492 447.878C-258.348 484.582 -220.19 505.159 -185.265 493.838C-150.34 482.517 -131.872 443.584 -144.016 406.88C-156.161 370.176 -194.318 349.598 -229.244 360.92C-264.169 372.241 -282.636 411.173 -270.492 447.878Z" fill="url(#paint17_linear_243_374)"/>
<path d="M-348.653 461.436C-341.16 484.084 -313.322 495.389 -286.477 486.686C-259.631 477.984 -243.943 452.57 -251.437 429.923C-258.93 407.276 -286.767 395.971 -313.613 404.673C-340.458 413.375 -356.146 438.789 -348.653 461.436Z" fill="url(#paint18_linear_243_374)"/>
<path d="M-422.804 511.864C-414.105 538.156 -384.234 552.073 -356.085 542.948C-327.937 533.823 -312.17 505.113 -320.869 478.821C-329.568 452.529 -359.439 438.612 -387.588 447.737C-415.736 456.861 -431.503 485.572 -422.804 511.864Z" fill="url(#paint19_linear_243_374)"/>
<path d="M-485.077 562.327C-476.034 589.66 -446.94 604.763 -420.094 596.061C-393.249 587.359 -378.817 558.147 -387.861 530.814C-396.905 503.48 -425.999 488.377 -452.844 497.079C-479.69 505.781 -494.121 534.994 -485.077 562.327Z" fill="url(#paint20_linear_243_374)"/>
<path d="M941.204 73.365L-482.119 534.744L-403.519 772.301L1019.8 310.922L941.204 73.365Z" fill="url(#paint21_linear_243_374)"/>
<path d="M-533.489 609.359C-524.445 636.693 -495.351 651.796 -468.506 643.094C-441.66 634.392 -427.229 605.179 -436.273 577.846C-445.316 550.513 -474.41 535.41 -501.256 544.112C-528.101 552.814 -542.533 582.026 -533.489 609.359Z" fill="url(#paint22_linear_243_374)"/>
<defs>
<linearGradient id="paint0_linear_243_374" x1="169.208" y1="235.412" x2="242.536" y2="479.34" gradientUnits="userSpaceOnUse">
<stop stop-color="#CAEEFE"/>
<stop offset="1" stop-color="#C0E9FF"/>
</linearGradient>
<linearGradient id="paint1_linear_243_374" x1="169.208" y1="235.412" x2="242.536" y2="479.34" gradientUnits="userSpaceOnUse">
<stop stop-color="#CAEEFE"/>
<stop offset="1" stop-color="#C0E9FF"/>
</linearGradient>
<linearGradient id="paint2_linear_243_374" x1="169.208" y1="235.412" x2="242.536" y2="479.34" gradientUnits="userSpaceOnUse">
<stop stop-color="#CAEEFE"/>
<stop offset="1" stop-color="#C0E9FF"/>
</linearGradient>
<linearGradient id="paint3_linear_243_374" x1="169.208" y1="235.412" x2="242.536" y2="479.34" gradientUnits="userSpaceOnUse">
<stop stop-color="#CAEEFE"/>
<stop offset="1" stop-color="#C0E9FF"/>
</linearGradient>
<linearGradient id="paint4_linear_243_374" x1="169.208" y1="235.412" x2="242.536" y2="479.34" gradientUnits="userSpaceOnUse">
<stop stop-color="#CAEEFE"/>
<stop offset="1" stop-color="#C0E9FF"/>
</linearGradient>
<linearGradient id="paint5_linear_243_374" x1="169.208" y1="235.412" x2="242.536" y2="479.34" gradientUnits="userSpaceOnUse">
<stop stop-color="#CAEEFE"/>
<stop offset="1" stop-color="#C0E9FF"/>
</linearGradient>
<linearGradient id="paint6_linear_243_374" x1="169.208" y1="235.412" x2="242.536" y2="479.34" gradientUnits="userSpaceOnUse">
<stop stop-color="#CAEEFE"/>
<stop offset="1" stop-color="#C0E9FF"/>
</linearGradient>
<linearGradient id="paint7_linear_243_374" x1="169.208" y1="235.412" x2="242.536" y2="479.34" gradientUnits="userSpaceOnUse">
<stop stop-color="#CAEEFE"/>
<stop offset="1" stop-color="#C0E9FF"/>
</linearGradient>
<linearGradient id="paint8_linear_243_374" x1="169.208" y1="235.412" x2="242.536" y2="479.34" gradientUnits="userSpaceOnUse">
<stop stop-color="#CAEEFE"/>
<stop offset="1" stop-color="#C0E9FF"/>
</linearGradient>
<linearGradient id="paint9_linear_243_374" x1="169.208" y1="235.412" x2="242.536" y2="479.34" gradientUnits="userSpaceOnUse">
<stop stop-color="#CAEEFE"/>
<stop offset="1" stop-color="#C0E9FF"/>
</linearGradient>
<linearGradient id="paint10_linear_243_374" x1="169.208" y1="235.412" x2="242.536" y2="479.34" gradientUnits="userSpaceOnUse">
<stop stop-color="#CAEEFE"/>
<stop offset="1" stop-color="#C0E9FF"/>
</linearGradient>
<linearGradient id="paint11_linear_243_374" x1="169.208" y1="235.412" x2="242.536" y2="479.34" gradientUnits="userSpaceOnUse">
<stop stop-color="#CAEEFE"/>
<stop offset="1" stop-color="#C0E9FF"/>
</linearGradient>
<linearGradient id="paint12_linear_243_374" x1="169.208" y1="235.412" x2="242.536" y2="479.34" gradientUnits="userSpaceOnUse">
<stop stop-color="#CAEEFE"/>
<stop offset="1" stop-color="#C0E9FF"/>
</linearGradient>
<linearGradient id="paint13_linear_243_374" x1="169.208" y1="235.412" x2="242.536" y2="479.34" gradientUnits="userSpaceOnUse">
<stop stop-color="#CAEEFE"/>
<stop offset="1" stop-color="#C0E9FF"/>
</linearGradient>
<linearGradient id="paint14_linear_243_374" x1="169.208" y1="235.412" x2="242.536" y2="479.34" gradientUnits="userSpaceOnUse">
<stop stop-color="#CAEEFE"/>
<stop offset="1" stop-color="#C0E9FF"/>
</linearGradient>
<linearGradient id="paint15_linear_243_374" x1="169.208" y1="235.412" x2="242.536" y2="479.34" gradientUnits="userSpaceOnUse">
<stop stop-color="#CAEEFE"/>
<stop offset="1" stop-color="#C0E9FF"/>
</linearGradient>
<linearGradient id="paint16_linear_243_374" x1="169.208" y1="235.412" x2="242.536" y2="479.34" gradientUnits="userSpaceOnUse">
<stop stop-color="#CAEEFE"/>
<stop offset="1" stop-color="#C0E9FF"/>
</linearGradient>
<linearGradient id="paint17_linear_243_374" x1="169.208" y1="235.412" x2="242.536" y2="479.34" gradientUnits="userSpaceOnUse">
<stop stop-color="#CAEEFE"/>
<stop offset="1" stop-color="#C0E9FF"/>
</linearGradient>
<linearGradient id="paint18_linear_243_374" x1="169.208" y1="235.412" x2="242.536" y2="479.34" gradientUnits="userSpaceOnUse">
<stop stop-color="#CAEEFE"/>
<stop offset="1" stop-color="#C0E9FF"/>
</linearGradient>
<linearGradient id="paint19_linear_243_374" x1="169.208" y1="235.412" x2="242.536" y2="479.34" gradientUnits="userSpaceOnUse">
<stop stop-color="#CAEEFE"/>
<stop offset="1" stop-color="#C0E9FF"/>
</linearGradient>
<linearGradient id="paint20_linear_243_374" x1="169.208" y1="235.412" x2="242.536" y2="479.34" gradientUnits="userSpaceOnUse">
<stop stop-color="#CAEEFE"/>
<stop offset="1" stop-color="#C0E9FF"/>
</linearGradient>
<linearGradient id="paint21_linear_243_374" x1="169.208" y1="235.412" x2="242.536" y2="479.34" gradientUnits="userSpaceOnUse">
<stop stop-color="#CAEEFE"/>
<stop offset="1" stop-color="#C0E9FF"/>
</linearGradient>
<linearGradient id="paint22_linear_243_374" x1="169.208" y1="235.412" x2="242.536" y2="479.34" gradientUnits="userSpaceOnUse">
<stop stop-color="#CAEEFE"/>
<stop offset="1" stop-color="#C0E9FF"/>
</linearGradient>
</defs>
</svg>
