<svg width="414" height="762" viewBox="0 0 414 762" fill="none" xmlns="http://www.w3.org/2000/svg">
<path d="M-401.42 564.282C-390.482 597.342 -408.448 632.841 -441.549 643.571C-474.649 654.3 -510.35 636.198 -521.289 603.138C-532.227 570.078 -514.261 534.579 -481.161 523.85C-448.06 513.12 -412.359 531.222 -401.42 564.282Z" fill="url(#paint0_linear_243_375)"/>
<path d="M-262.816 485.047C-251.877 518.107 -272.801 554.565 -309.551 566.478C-346.301 578.39 -390.482 597.342 -401.42 564.282C-412.359 531.222 -385.912 458.669 -349.163 446.757C-312.413 434.844 -273.754 451.987 -262.816 485.047Z" fill="url(#paint1_linear_243_375)"/>
<path d="M-200.408 420.978C-188.091 458.203 -209.8 498.654 -248.895 511.327C-287.991 524 -329.668 504.097 -341.985 466.872C-354.301 429.646 -332.593 389.196 -293.497 376.523C-254.402 363.85 -212.724 383.753 -200.408 420.978Z" fill="url(#paint2_linear_243_375)"/>
<path d="M-118.743 446.696C-106.426 483.921 -150.863 439.885 -189.959 452.558C-229.054 465.231 -248.004 529.814 -260.32 492.589C-272.637 455.364 -250.928 414.913 -211.833 402.24C-172.737 389.567 -131.06 409.471 -118.743 446.696Z" fill="url(#paint3_linear_243_375)"/>
<path d="M-103.216 398.867C-96.0669 420.473 -109.71 444.29 -133.689 452.062C-157.667 459.835 -182.901 448.621 -190.05 427.015C-197.199 405.409 -183.555 381.592 -159.577 373.82C-135.598 366.047 -110.365 377.261 -103.216 398.867Z" fill="url(#paint4_linear_243_375)"/>
<path d="M-8.17459 357.621C3.96976 394.325 -14.4978 433.258 -49.4231 444.579C-84.3483 455.9 -122.506 435.323 -134.65 398.619C-146.795 361.914 -128.327 322.982 -93.4016 311.661C-58.4763 300.339 -20.3189 320.917 -8.17459 357.621Z" fill="url(#paint5_linear_243_375)"/>
<path d="M64.8136 335.005C72.307 357.653 56.6189 383.066 29.7733 391.769C2.92777 400.471 -24.9094 389.166 -32.4027 366.518C-39.896 343.871 -24.2079 318.457 2.63762 309.755C29.4832 301.053 57.3203 312.358 64.8136 335.005Z" fill="url(#paint6_linear_243_375)"/>
<path d="M126.986 361.822C134.479 384.47 118.791 409.884 91.9453 418.586C65.0997 427.288 37.2626 415.983 29.7693 393.336C22.2759 370.688 37.964 345.274 64.8096 336.572C91.6551 327.87 119.492 339.175 126.986 361.822Z" fill="url(#paint7_linear_243_375)"/>
<path d="M175.491 325.223C184.19 351.515 168.423 380.226 140.274 389.35C112.125 398.475 82.2543 384.558 73.5552 358.266C64.856 331.974 80.623 303.264 108.772 294.139C136.92 285.015 166.792 298.931 175.491 325.223Z" fill="url(#paint8_linear_243_375)"/>
<path d="M274.307 282.753C287.485 322.582 263.939 365.964 221.716 379.651C179.493 393.338 134.582 372.146 121.404 332.318C108.226 292.49 131.772 249.107 173.995 235.42C216.218 221.733 261.129 242.925 274.307 282.753Z" fill="url(#paint9_linear_243_375)"/>
<path d="M340.622 227.334C350.958 258.572 325.108 294.99 282.885 308.677C240.661 322.364 198.054 308.136 187.719 276.898C177.383 245.661 203.233 209.242 245.456 195.555C287.679 181.868 330.287 196.096 340.622 227.334Z" fill="url(#paint10_linear_243_375)"/>
<path d="M434.869 250.016C444.343 278.651 424.556 310.768 390.673 321.751C356.791 332.734 321.643 318.425 312.168 289.79C302.694 261.156 322.481 229.039 356.364 218.056C390.247 207.072 425.395 221.382 434.869 250.016Z" fill="url(#paint11_linear_243_375)"/>
<path d="M422.763 251.331C433.701 284.391 415.735 319.89 382.634 330.62C349.534 341.35 313.832 323.247 302.894 290.187C291.955 257.127 309.922 221.629 343.023 210.899C376.123 200.169 411.824 218.271 422.763 251.331Z" fill="url(#paint12_linear_243_375)"/>
<path d="M501.685 243.492C512.624 276.552 491.7 313.01 454.95 324.923C418.2 336.835 379.541 319.692 368.603 286.632C357.664 253.572 378.588 217.114 415.338 205.202C452.088 193.289 490.747 210.432 501.685 243.492Z" fill="url(#paint13_linear_243_375)"/>
<path d="M564.093 179.423C576.41 216.648 554.701 257.099 515.606 269.772C476.51 282.445 434.833 262.541 422.516 225.316C410.199 188.091 431.908 147.641 471.003 134.968C510.099 122.295 551.777 142.198 564.093 179.423Z" fill="url(#paint14_linear_243_375)"/>
<path d="M645.758 205.141C658.074 242.366 636.366 282.816 597.27 295.489C558.175 308.162 516.497 288.259 504.181 251.034C491.864 213.809 513.573 173.358 552.668 160.685C591.764 148.012 633.441 167.916 645.758 205.141Z" fill="url(#paint15_linear_243_375)"/>
<path d="M661.285 157.312C668.434 178.918 654.791 202.734 630.812 210.507C606.834 218.28 581.6 207.066 574.451 185.46C567.302 163.854 580.946 140.037 604.924 132.264C628.903 124.492 654.136 135.706 661.285 157.312Z" fill="url(#paint16_linear_243_375)"/>
<path d="M756.326 116.066C768.471 152.77 750.003 191.703 715.078 203.024C680.152 214.345 641.995 193.768 629.851 157.064C617.706 120.359 636.174 81.4267 671.099 70.1055C706.025 58.7842 744.182 79.3613 756.326 116.066Z" fill="url(#paint17_linear_243_375)"/>
<path d="M829.315 93.45C836.808 116.097 821.12 141.511 794.274 150.213C767.429 158.916 739.592 147.611 732.098 124.963C724.605 102.316 740.293 76.902 767.139 68.1998C793.984 59.4977 821.821 70.8025 829.315 93.45Z" fill="url(#paint18_linear_243_375)"/>
<path d="M917.372 78.4749C926.071 104.767 910.304 133.477 882.155 142.602C854.006 151.727 824.135 137.81 815.436 111.518C806.737 85.2262 822.504 56.5155 850.653 47.3909C878.801 38.2663 908.673 52.1831 917.372 78.4749Z" fill="url(#paint19_linear_243_375)"/>
<path d="M975.635 36.625C984.679 63.9581 970.248 93.1704 943.402 101.873C916.557 110.575 887.463 95.4714 878.419 68.1383C869.375 40.8052 883.807 11.5928 910.652 2.8907C937.498 -5.81148 966.592 9.29188 975.635 36.625Z" fill="url(#paint20_linear_243_375)"/>
<path d="M-444.453 523.573L978.87 62.1932L1057.47 299.75L869.668 789.302L-365.853 761.129L-444.453 523.573Z" fill="url(#paint21_linear_243_375)"/>
<path d="M-401.42 564.282C-390.482 597.342 -408.448 632.841 -441.549 643.571C-474.649 654.3 -510.35 636.198 -521.289 603.138C-532.227 570.078 -514.261 534.579 -481.161 523.85C-448.06 513.12 -412.359 531.222 -401.42 564.282Z" fill="url(#paint22_linear_243_375)"/>
<path d="M-341.161 496.968C-330.222 530.028 -348.188 565.526 -381.289 576.256C-414.39 586.986 -450.091 568.884 -461.029 535.824C-471.968 502.764 -454.002 467.265 -420.901 456.535C-387.8 445.805 -352.099 463.908 -341.161 496.968Z" fill="url(#paint23_linear_243_375)"/>
<defs>
<linearGradient id="paint0_linear_243_375" x1="569.92" y1="105.825" x2="839.828" y2="696.199" gradientUnits="userSpaceOnUse">
<stop stop-color="white"/>
<stop offset="1" stop-color="#E5F6FF"/>
</linearGradient>
<linearGradient id="paint1_linear_243_375" x1="569.92" y1="105.825" x2="839.828" y2="696.199" gradientUnits="userSpaceOnUse">
<stop stop-color="white"/>
<stop offset="1" stop-color="#E5F6FF"/>
</linearGradient>
<linearGradient id="paint2_linear_243_375" x1="569.92" y1="105.825" x2="839.828" y2="696.199" gradientUnits="userSpaceOnUse">
<stop stop-color="white"/>
<stop offset="1" stop-color="#E5F6FF"/>
</linearGradient>
<linearGradient id="paint3_linear_243_375" x1="569.92" y1="105.825" x2="839.828" y2="696.199" gradientUnits="userSpaceOnUse">
<stop stop-color="white"/>
<stop offset="1" stop-color="#E5F6FF"/>
</linearGradient>
<linearGradient id="paint4_linear_243_375" x1="569.92" y1="105.825" x2="839.828" y2="696.199" gradientUnits="userSpaceOnUse">
<stop stop-color="white"/>
<stop offset="1" stop-color="#E5F6FF"/>
</linearGradient>
<linearGradient id="paint5_linear_243_375" x1="569.92" y1="105.825" x2="839.828" y2="696.199" gradientUnits="userSpaceOnUse">
<stop stop-color="white"/>
<stop offset="1" stop-color="#E5F6FF"/>
</linearGradient>
<linearGradient id="paint6_linear_243_375" x1="569.92" y1="105.825" x2="839.828" y2="696.199" gradientUnits="userSpaceOnUse">
<stop stop-color="white"/>
<stop offset="1" stop-color="#E5F6FF"/>
</linearGradient>
<linearGradient id="paint7_linear_243_375" x1="569.92" y1="105.825" x2="839.828" y2="696.199" gradientUnits="userSpaceOnUse">
<stop stop-color="white"/>
<stop offset="1" stop-color="#E5F6FF"/>
</linearGradient>
<linearGradient id="paint8_linear_243_375" x1="569.92" y1="105.825" x2="839.828" y2="696.199" gradientUnits="userSpaceOnUse">
<stop stop-color="white"/>
<stop offset="1" stop-color="#E5F6FF"/>
</linearGradient>
<linearGradient id="paint9_linear_243_375" x1="569.92" y1="105.825" x2="839.828" y2="696.199" gradientUnits="userSpaceOnUse">
<stop stop-color="white"/>
<stop offset="1" stop-color="#E5F6FF"/>
</linearGradient>
<linearGradient id="paint10_linear_243_375" x1="569.92" y1="105.825" x2="839.828" y2="696.199" gradientUnits="userSpaceOnUse">
<stop stop-color="white"/>
<stop offset="1" stop-color="#E5F6FF"/>
</linearGradient>
<linearGradient id="paint11_linear_243_375" x1="569.92" y1="105.825" x2="839.828" y2="696.199" gradientUnits="userSpaceOnUse">
<stop stop-color="white"/>
<stop offset="1" stop-color="#E5F6FF"/>
</linearGradient>
<linearGradient id="paint12_linear_243_375" x1="569.92" y1="105.825" x2="839.828" y2="696.199" gradientUnits="userSpaceOnUse">
<stop stop-color="white"/>
<stop offset="1" stop-color="#E5F6FF"/>
</linearGradient>
<linearGradient id="paint13_linear_243_375" x1="569.92" y1="105.825" x2="839.828" y2="696.199" gradientUnits="userSpaceOnUse">
<stop stop-color="white"/>
<stop offset="1" stop-color="#E5F6FF"/>
</linearGradient>
<linearGradient id="paint14_linear_243_375" x1="569.92" y1="105.825" x2="839.828" y2="696.199" gradientUnits="userSpaceOnUse">
<stop stop-color="white"/>
<stop offset="1" stop-color="#E5F6FF"/>
</linearGradient>
<linearGradient id="paint15_linear_243_375" x1="569.92" y1="105.825" x2="839.828" y2="696.199" gradientUnits="userSpaceOnUse">
<stop stop-color="white"/>
<stop offset="1" stop-color="#E5F6FF"/>
</linearGradient>
<linearGradient id="paint16_linear_243_375" x1="569.92" y1="105.825" x2="839.828" y2="696.199" gradientUnits="userSpaceOnUse">
<stop stop-color="white"/>
<stop offset="1" stop-color="#E5F6FF"/>
</linearGradient>
<linearGradient id="paint17_linear_243_375" x1="569.92" y1="105.825" x2="839.828" y2="696.199" gradientUnits="userSpaceOnUse">
<stop stop-color="white"/>
<stop offset="1" stop-color="#E5F6FF"/>
</linearGradient>
<linearGradient id="paint18_linear_243_375" x1="569.92" y1="105.825" x2="839.828" y2="696.199" gradientUnits="userSpaceOnUse">
<stop stop-color="white"/>
<stop offset="1" stop-color="#E5F6FF"/>
</linearGradient>
<linearGradient id="paint19_linear_243_375" x1="569.92" y1="105.825" x2="839.828" y2="696.199" gradientUnits="userSpaceOnUse">
<stop stop-color="white"/>
<stop offset="1" stop-color="#E5F6FF"/>
</linearGradient>
<linearGradient id="paint20_linear_243_375" x1="569.92" y1="105.825" x2="839.828" y2="696.199" gradientUnits="userSpaceOnUse">
<stop stop-color="white"/>
<stop offset="1" stop-color="#E5F6FF"/>
</linearGradient>
<linearGradient id="paint21_linear_243_375" x1="569.92" y1="105.825" x2="839.828" y2="696.199" gradientUnits="userSpaceOnUse">
<stop stop-color="white"/>
<stop offset="1" stop-color="#E5F6FF"/>
</linearGradient>
<linearGradient id="paint22_linear_243_375" x1="569.92" y1="105.825" x2="839.828" y2="696.199" gradientUnits="userSpaceOnUse">
<stop stop-color="white"/>
<stop offset="1" stop-color="#E5F6FF"/>
</linearGradient>
<linearGradient id="paint23_linear_243_375" x1="569.92" y1="105.825" x2="839.828" y2="696.199" gradientUnits="userSpaceOnUse">
<stop stop-color="white"/>
<stop offset="1" stop-color="#E5F6FF"/>
</linearGradient>
</defs>
</svg>
