<svg width="179" height="86" viewBox="0 0 179 86" fill="none" xmlns="http://www.w3.org/2000/svg">
<g filter="url(#filter0_d_30_35)">
<path d="M160.109 50.0957C172.833 59.2938 142.197 58.8143 133.168 54.7151C124.14 50.6159 120.788 41.591 125.68 34.5575C130.573 27.5239 144.036 22.5014 153.412 28.4531C164.127 32.2406 164.797 41.9797 160.109 50.0957Z" fill="white"/>
<path d="M130.641 29.5973C155.42 24.7277 136.668 39.3365 124.285 47.0453C116.082 52.1521 103.899 48.0536 99.388 40.8555C94.8769 33.6575 97.2034 21.8247 108.541 18.8426C118.399 13.757 123.14 22.0502 130.641 29.5973Z" fill="white"/>
<path d="M105.598 40.9088C137.587 44.7195 128.401 54.5579 98.6055 66.7464C89.3662 70.526 76.7734 65.4476 70.4788 55.4035C64.1841 45.3594 64.3645 30.1023 76.029 27.6413C85.6788 22.2243 96.0034 30.0208 105.598 40.9088Z" fill="white"/>
<path d="M171.507 61.2397C171.121 67.0089 163.239 71.3551 153.904 70.947C144.568 70.5389 137.313 65.5312 137.7 59.7619C138.086 53.9926 146.386 47.3935 156.937 48.9142C167.473 48.7009 171.893 55.4704 171.507 61.2397Z" fill="white"/>
<path d="M133.579 75.3598C127.148 76.348 120.642 71.6547 119.046 64.8771C117.45 58.0994 121.37 51.8039 127.8 50.8157C134.23 49.8275 143.306 54.3267 143.944 62.2188C146.486 69.7201 140.009 74.3715 133.579 75.3598Z" fill="white"/>
<path d="M105.191 77.1485C97.1931 78.3776 88.9156 72.949 87.3199 66.1713C85.7242 59.3937 90.9144 52.9028 98.9126 51.6737C106.911 50.4445 122.649 54.5638 123 62.5C125.725 69.9733 118.5 75.1032 105.191 77.1485Z" fill="white"/>
<path d="M119.257 70.1146C110.092 75.3694 102.981 65.9151 101.386 59.1375C99.79 52.3598 104.98 45.869 112.978 44.6398C120.977 43.4107 130.961 48.1107 131.312 56.047C134.036 63.5203 126.372 71.693 119.257 70.1146Z" fill="white"/>
<path d="M147 67C137 71.5 128 64 128.703 54.5C127.108 47.7224 132.298 41.2315 140.296 40.0024C148.294 38.7732 158.278 43.4733 158.629 51.4095C158 62.5 157 62.5 147 67Z" fill="white"/>
<path d="M74.2262 77.1179C63.7908 78.7217 53.3991 71.1913 51.6171 63.6225C49.8351 56.0537 56.7282 50.281 67.1637 48.6773C77.5991 47.0735 91.6505 51.4961 91.7671 60.401C94.9848 68.7198 84.6617 75.5142 74.2262 77.1179Z" fill="white"/>
<path d="M37.5533 73.2491C25.5 72.5 22.282 65.9157 20.5 58.3469C18.718 50.7781 20.0684 45.6585 30.5038 44.0548C40.9392 42.451 65.0106 46.7369 60.9926 59C60.9926 64.051 54.5 70.5 37.5533 73.2491Z" fill="white"/>
<path d="M18.4534 69.0326C8.01796 70.6363 3.05036 65.3034 3.05037 57.6703C1.54447 51.2741 9.67503 45.0659 20.1104 43.4621C30.5459 41.8584 54.3361 44.9503 49.9081 55.472C49.7303 59.7678 33.9635 64.077 18.4534 69.0326Z" fill="white"/>
<path d="M41.1119 54.5543C30.4997 54.9323 26.5301 49.0788 27.8851 41.5246C27.5302 35.0201 36.6787 29.8181 47.2909 29.4401C57.9032 29.0621 80.8986 34.8786 74.6487 44.7786C73.7101 49.0093 57.3414 51.4471 41.1119 54.5543Z" fill="white"/>
<path d="M64.1532 49.9035C54.7961 47.0097 53.2552 35.9716 57.2734 25.6914C64.64 19.1986 69.3279 18.6576 79.3734 20.9072C88.7304 23.801 111.726 36.508 99.5943 47.6538C95.8951 52.9713 80.1934 50.9707 64.1532 49.9035Z" fill="white"/>
<path d="M102.143 47.1783C92.786 44.2845 82.7842 27.9213 90.8205 20.4317C100.196 14.0609 104.832 12.8779 119.319 15.5331C131.128 17.6974 134.722 32.8472 137.584 44.9287C133.885 50.2461 118.183 48.2456 102.143 47.1783Z" fill="white"/>
<path d="M61.03 56V47.624H64.63C65.406 47.624 66.006 47.852 66.43 48.308C66.854 48.764 67.066 49.376 67.066 50.144C67.066 50.912 66.854 51.524 66.43 51.98C66.006 52.436 65.406 52.664 64.63 52.664H62.386V56H61.03ZM62.386 51.476H64.546C64.89 51.476 65.158 51.388 65.35 51.212C65.542 51.028 65.638 50.768 65.638 50.432V49.856C65.638 49.52 65.542 49.264 65.35 49.088C65.158 48.904 64.89 48.812 64.546 48.812H62.386V51.476ZM70.6711 56.144C70.2391 56.144 69.8431 56.068 69.4831 55.916C69.1311 55.764 68.8311 55.548 68.5831 55.268C68.3351 54.98 68.1431 54.636 68.0071 54.236C67.8711 53.828 67.8031 53.376 67.8031 52.88C67.8031 52.384 67.8711 51.936 68.0071 51.536C68.1431 51.128 68.3351 50.784 68.5831 50.504C68.8311 50.216 69.1311 49.996 69.4831 49.844C69.8431 49.692 70.2391 49.616 70.6711 49.616C71.1031 49.616 71.4951 49.692 71.8471 49.844C72.2071 49.996 72.5111 50.216 72.7591 50.504C73.0071 50.784 73.1991 51.128 73.3351 51.536C73.4711 51.936 73.5391 52.384 73.5391 52.88C73.5391 53.376 73.4711 53.828 73.3351 54.236C73.1991 54.636 73.0071 54.98 72.7591 55.268C72.5111 55.548 72.2071 55.764 71.8471 55.916C71.4951 56.068 71.1031 56.144 70.6711 56.144ZM70.6711 55.064C71.1191 55.064 71.4791 54.928 71.7511 54.656C72.0231 54.376 72.1591 53.96 72.1591 53.408V52.352C72.1591 51.8 72.0231 51.388 71.7511 51.116C71.4791 50.836 71.1191 50.696 70.6711 50.696C70.2231 50.696 69.8631 50.836 69.5911 51.116C69.3191 51.388 69.1831 51.8 69.1831 52.352V53.408C69.1831 53.96 69.3191 54.376 69.5911 54.656C69.8631 54.928 70.2231 55.064 70.6711 55.064ZM74.9965 56V49.76H76.3045V50.96H76.3645C76.4525 50.64 76.6365 50.36 76.9165 50.12C77.1965 49.88 77.5845 49.76 78.0805 49.76H78.4285V51.02H77.9125C77.3925 51.02 76.9925 51.104 76.7125 51.272C76.4405 51.44 76.3045 51.688 76.3045 52.016V56H74.9965ZM81.3652 56C80.9092 56 80.5652 55.884 80.3332 55.652C80.1012 55.412 79.9852 55.076 79.9852 54.644V50.828H79.0132V49.76H79.5412C79.7572 49.76 79.9052 49.712 79.9852 49.616C80.0732 49.52 80.1172 49.364 80.1172 49.148V48.056H81.2932V49.76H82.6012V50.828H81.2932V54.932H82.5052V56H81.3652ZM87.8 54.968H87.752C87.696 55.12 87.62 55.268 87.524 55.412C87.436 55.556 87.32 55.684 87.176 55.796C87.04 55.9 86.872 55.984 86.672 56.048C86.48 56.112 86.256 56.144 86 56.144C85.352 56.144 84.848 55.936 84.488 55.52C84.136 55.104 83.96 54.508 83.96 53.732V49.76H85.268V53.564C85.268 54.532 85.668 55.016 86.468 55.016C86.636 55.016 86.8 54.996 86.96 54.956C87.12 54.908 87.26 54.84 87.38 54.752C87.508 54.664 87.608 54.552 87.68 54.416C87.76 54.28 87.8 54.12 87.8 53.936V49.76H89.108V56H87.8V54.968ZM96.4529 56.588C96.4529 57.236 96.2049 57.724 95.7089 58.052C95.2129 58.38 94.4049 58.544 93.2849 58.544C92.7729 58.544 92.3369 58.508 91.9769 58.436C91.6249 58.372 91.3329 58.276 91.1009 58.148C90.8769 58.02 90.7129 57.864 90.6089 57.68C90.5049 57.496 90.4529 57.284 90.4529 57.044C90.4529 56.7 90.5449 56.432 90.7289 56.24C90.9209 56.048 91.1849 55.916 91.5209 55.844V55.712C91.0489 55.56 90.8129 55.24 90.8129 54.752C90.8129 54.432 90.9209 54.188 91.1369 54.02C91.3529 53.844 91.6129 53.72 91.9169 53.648V53.6C91.5489 53.424 91.2649 53.18 91.0649 52.868C90.8729 52.548 90.7769 52.176 90.7769 51.752C90.7769 51.112 90.9889 50.596 91.4129 50.204C91.8449 49.812 92.4609 49.616 93.2609 49.616C93.7009 49.616 94.0769 49.68 94.3889 49.808V49.64C94.3889 49.36 94.4529 49.144 94.5809 48.992C94.7169 48.832 94.9249 48.752 95.2049 48.752H96.1649V49.808H94.8929V50.06C95.1729 50.244 95.3889 50.484 95.5409 50.78C95.6929 51.068 95.7689 51.392 95.7689 51.752C95.7689 52.384 95.5529 52.896 95.1209 53.288C94.6889 53.672 94.0729 53.864 93.2729 53.864C92.9689 53.864 92.6969 53.832 92.4569 53.768C92.2969 53.824 92.1569 53.904 92.0369 54.008C91.9169 54.104 91.8569 54.232 91.8569 54.392C91.8569 54.56 91.9329 54.68 92.0849 54.752C92.2369 54.824 92.4529 54.86 92.7329 54.86H94.2689C95.0369 54.86 95.5929 55.016 95.9369 55.328C96.2809 55.632 96.4529 56.052 96.4529 56.588ZM95.2289 56.732C95.2289 56.516 95.1449 56.344 94.9769 56.216C94.8169 56.088 94.5209 56.024 94.0889 56.024H91.9769C91.6889 56.192 91.5449 56.432 91.5449 56.744C91.5449 57 91.6449 57.204 91.8449 57.356C92.0529 57.516 92.4009 57.596 92.8889 57.596H93.7049C94.7209 57.596 95.2289 57.308 95.2289 56.732ZM93.2729 52.916C93.6569 52.916 93.9529 52.832 94.1609 52.664C94.3769 52.488 94.4849 52.22 94.4849 51.86V51.62C94.4849 51.26 94.3769 50.996 94.1609 50.828C93.9529 50.652 93.6569 50.564 93.2729 50.564C92.8889 50.564 92.5889 50.652 92.3729 50.828C92.1649 50.996 92.0609 51.26 92.0609 51.62V51.86C92.0609 52.22 92.1649 52.488 92.3729 52.664C92.5889 52.832 92.8889 52.916 93.2729 52.916ZM101.159 54.968H101.111C101.055 55.12 100.979 55.268 100.883 55.412C100.795 55.556 100.679 55.684 100.535 55.796C100.399 55.9 100.231 55.984 100.031 56.048C99.8394 56.112 99.6154 56.144 99.3594 56.144C98.7114 56.144 98.2074 55.936 97.8474 55.52C97.4954 55.104 97.3194 54.508 97.3194 53.732V49.76H98.6274V53.564C98.6274 54.532 99.0274 55.016 99.8274 55.016C99.9954 55.016 100.159 54.996 100.319 54.956C100.479 54.908 100.619 54.84 100.739 54.752C100.867 54.664 100.967 54.552 101.039 54.416C101.119 54.28 101.159 54.12 101.159 53.936V49.76H102.467V56H101.159V54.968ZM106.788 56.144C106.34 56.144 105.94 56.068 105.588 55.916C105.236 55.764 104.936 55.548 104.688 55.268C104.44 54.98 104.248 54.636 104.112 54.236C103.984 53.828 103.92 53.376 103.92 52.88C103.92 52.384 103.984 51.936 104.112 51.536C104.248 51.128 104.44 50.784 104.688 50.504C104.936 50.216 105.236 49.996 105.588 49.844C105.94 49.692 106.34 49.616 106.788 49.616C107.244 49.616 107.644 49.696 107.988 49.856C108.34 50.016 108.632 50.24 108.864 50.528C109.096 50.808 109.268 51.136 109.38 51.512C109.5 51.888 109.56 52.292 109.56 52.724V53.216H105.276V53.42C105.276 53.9 105.416 54.296 105.696 54.608C105.984 54.912 106.392 55.064 106.92 55.064C107.304 55.064 107.628 54.98 107.892 54.812C108.156 54.644 108.38 54.416 108.564 54.128L109.332 54.884C109.1 55.268 108.764 55.576 108.324 55.808C107.884 56.032 107.372 56.144 106.788 56.144ZM106.788 50.636C106.564 50.636 106.356 50.676 106.164 50.756C105.98 50.836 105.82 50.948 105.684 51.092C105.556 51.236 105.456 51.408 105.384 51.608C105.312 51.808 105.276 52.028 105.276 52.268V52.352H108.18V52.232C108.18 51.752 108.056 51.368 107.808 51.08C107.56 50.784 107.22 50.636 106.788 50.636ZM107.472 46.664L108.912 48.464L108.24 48.98L106.812 47.576L105.384 48.98L104.712 48.464L106.152 46.664H107.472ZM112.988 56.144C112.396 56.144 111.9 56.04 111.5 55.832C111.1 55.624 110.752 55.336 110.456 54.968L111.296 54.2C111.528 54.48 111.784 54.7 112.064 54.86C112.352 55.012 112.684 55.088 113.06 55.088C113.444 55.088 113.728 55.016 113.912 54.872C114.104 54.72 114.2 54.512 114.2 54.248C114.2 54.048 114.132 53.88 113.996 53.744C113.868 53.6 113.64 53.508 113.312 53.468L112.736 53.396C112.096 53.316 111.592 53.132 111.224 52.844C110.864 52.548 110.684 52.112 110.684 51.536C110.684 51.232 110.74 50.964 110.852 50.732C110.964 50.492 111.12 50.292 111.32 50.132C111.528 49.964 111.772 49.836 112.052 49.748C112.34 49.66 112.656 49.616 113 49.616C113.56 49.616 114.016 49.704 114.368 49.88C114.728 50.056 115.048 50.3 115.328 50.612L114.524 51.38C114.364 51.188 114.152 51.024 113.888 50.888C113.632 50.744 113.336 50.672 113 50.672C112.64 50.672 112.372 50.744 112.196 50.888C112.028 51.032 111.944 51.22 111.944 51.452C111.944 51.692 112.02 51.872 112.172 51.992C112.324 52.112 112.568 52.2 112.904 52.256L113.48 52.328C114.168 52.432 114.668 52.636 114.98 52.94C115.3 53.236 115.46 53.636 115.46 54.14C115.46 54.444 115.4 54.72 115.28 54.968C115.168 55.208 115.004 55.416 114.788 55.592C114.572 55.768 114.312 55.904 114.008 56C113.704 56.096 113.364 56.144 112.988 56.144Z" fill="#878787"/>
<path d="M52.9106 52.6931C53.0721 52.155 53.1595 51.5869 53.1595 51C53.1595 49.8787 52.846 48.8288 52.3007 47.9306V47.9288C52.2988 47.925 52.295 47.9231 52.295 47.9194C51.231 46.1719 49.2912 45 47.0797 45C43.9791 45 41.4161 47.3025 41.0475 50.265V50.2688C41.0163 50.5113 41.0004 50.7555 41 51C41 54.3075 43.7283 57 47.0797 57C49.8194 57 52.1411 55.2019 52.8992 52.7381C52.9049 52.7231 52.9087 52.7081 52.9106 52.6931ZM41.3686 51C41.3686 50.8519 41.3762 50.7075 41.3876 50.5612C41.9937 50.8369 42.8277 51.0994 43.8746 51.3412C43.9373 51.3562 44.0038 51.3675 44.0665 51.3825C44.0893 52.1081 44.1729 52.7944 44.3078 53.4225C44.3021 53.4206 44.2945 53.4206 44.2888 53.4188C43.2552 53.2106 42.3204 52.8956 41.5757 52.5075C41.4427 52.0275 41.3686 51.5212 41.3686 51ZM42.1494 48.1613C42.7042 48.3488 43.6295 48.6 44.2755 48.7387C44.1368 49.4344 44.0608 50.1956 44.0608 51V51.0094L43.9582 50.9869C42.8638 50.7356 42.0184 50.4637 41.4313 50.1769C41.5377 49.4513 41.7866 48.7706 42.1494 48.1613ZM52.7149 50.0906C52.0537 50.5012 51.1266 50.8631 50.2089 51.0694C50.1728 51.0769 50.1329 51.0825 50.0968 51.09C50.0968 51.06 50.0987 51.03 50.0987 51C50.0987 50.2444 50.0322 49.5263 49.9087 48.8663C49.9182 48.8644 49.9258 48.8644 49.9353 48.8625C50.6326 48.7425 51.5597 48.4106 52.048 48.2231C52.3748 48.7912 52.6047 49.4212 52.7149 50.0906ZM49.7301 51C49.7301 51.0525 49.7282 51.1031 49.7282 51.1556C48.9587 51.2869 48.1342 51.3506 47.264 51.3488V49.0594C48.0233 49.0716 48.7824 49.0252 49.5344 48.9206C49.6598 49.5675 49.7301 50.2706 49.7301 51ZM44.4293 51C44.4293 50.2294 44.5072 49.4869 44.6459 48.81C45.3774 48.9431 46.1317 49.0219 46.8954 49.0481V51.3469C46.0652 51.3244 45.2254 51.2362 44.4293 51.0844V51ZM47.264 48.6956V45.3787C48.2178 45.525 49.0499 46.8 49.4603 48.5625C48.7593 48.66 48.0259 48.705 47.264 48.6956ZM46.8954 45.3787V48.6825C46.1602 48.6562 45.4325 48.5794 44.7257 48.4538C45.1437 46.7494 45.9626 45.5231 46.8954 45.3787ZM44.4388 51.4556C45.2349 51.6019 46.069 51.6881 46.8954 51.7106V53.7094C46.1507 53.6888 45.4192 53.6175 44.7143 53.4956C44.5642 52.8675 44.4673 52.1775 44.4388 51.4556ZM46.8954 54.0712V56.6194C46.0253 56.4844 45.2539 55.41 44.815 53.88C45.4914 53.9906 46.1868 54.0525 46.8954 54.0712ZM47.264 56.6213V54.0806H47.3381C48.024 54.0806 48.6871 54.0375 49.3216 53.9531C48.8809 55.4438 48.1209 56.4881 47.264 56.6213ZM47.264 53.7131V51.7162H47.3191C48.1608 51.7162 48.9625 51.6506 49.7168 51.5287C49.6826 52.2544 49.5819 52.9425 49.4261 53.5669C48.7403 53.6681 48.0145 53.7169 47.264 53.7131ZM50.0892 51.4612C50.1557 51.4481 50.2241 51.4388 50.2887 51.4256C51.1817 51.2269 52.0841 50.8819 52.7662 50.4881C52.7814 50.6569 52.7909 50.8275 52.7909 51.0019C52.7909 51.54 52.713 52.0613 52.5686 52.5544C51.8637 52.9781 50.9309 53.3062 49.8631 53.5013L49.8327 53.5069C49.9733 52.8769 50.0626 52.1887 50.0892 51.4612ZM51.8523 47.9081C51.364 48.0938 50.511 48.3938 49.8726 48.5044L49.8365 48.51C49.5325 47.1562 48.9872 46.0819 48.3014 45.495C49.7776 45.8138 51.0449 46.6988 51.8523 47.9081ZM45.86 45.495C45.195 46.0631 44.6611 47.0887 44.3534 48.3844C43.7511 48.255 42.8999 48.0263 42.3508 47.8444C43.1583 46.6669 44.4065 45.8081 45.86 45.495ZM41.7372 52.9931C42.4515 53.325 43.2818 53.5875 44.2147 53.775C44.2755 53.7881 44.3382 53.7956 44.3989 53.8088C44.7124 55.0125 45.2254 55.965 45.8581 56.5069C43.962 56.0962 42.4154 54.7537 41.7372 52.9931ZM48.2995 56.505C48.9169 55.9762 49.4223 55.0538 49.7377 53.8875C49.8004 53.8763 49.8669 53.8688 49.9296 53.8575C50.8815 53.685 51.7041 53.4187 52.39 53.0681C51.6984 54.7931 50.169 56.1019 48.2995 56.505Z" fill="#878787" stroke="#878787" stroke-width="0.5"/>
<path d="M134 48L129.5 53L125 48" stroke="#878787" stroke-width="1.5" stroke-miterlimit="10" stroke-linecap="round" stroke-linejoin="round"/>
</g>
<defs>
<filter id="filter0_d_30_35" x="1.87024" y="14.2068" width="176.66" height="71.1289" filterUnits="userSpaceOnUse" color-interpolation-filters="sRGB">
<feFlood flood-opacity="0" result="BackgroundImageFix"/>
<feColorMatrix in="SourceAlpha" type="matrix" values="0 0 0 0 0 0 0 0 0 0 0 0 0 0 0 0 0 0 127 0" result="hardAlpha"/>
<feOffset dx="3" dy="4"/>
<feGaussianBlur stdDeviation="2"/>
<feComposite in2="hardAlpha" operator="out"/>
<feColorMatrix type="matrix" values="0 0 0 0 0 0 0 0 0 0 0 0 0 0 0 0 0 0 0.25 0"/>
<feBlend mode="normal" in2="BackgroundImageFix" result="effect1_dropShadow_30_35"/>
<feBlend mode="normal" in="SourceGraphic" in2="effect1_dropShadow_30_35" result="shape"/>
</filter>
</defs>
</svg>
